<svg xmlns="http://www.w3.org/2000/svg" viewBox="0 0 100 100">
<!-- SVG created with Arrow, by QuiverAI (https://quiver.ai) -->
  <style type="text/css">.cls-0 {fill:#EB2027;}
.cls-1 {fill:#F59826;}</style>
  <path class="cls-0" d="m96.8 36.7-18.9-12.3-14.9-10.2c-3.6-2.4-7.9-3.9-13-4-4.3 0-9 1.1-12.7 3.4l-34 23.1c-3.2 2-2.6 8.5 2.8 8.6 1.6 0 2.3-0.6 4.4-1.9l31.9-21.2c2.2-1.4 4.8-2.6 7.7-2.6 2.7-0.1 5.4 0.7 7.5 2l28.6 19 4.6 3c1.3 0.9 2.1 1.7 3.9 1.7 3.8-0.1 5.8-4.9 2.8-8l-0.7-0.6z"/>
  <path class="cls-0" d="m83.2 46.8c-2.6-0.1-4.7 1.8-4.7 4.5 0 4.5-1.1 8.8-3.4 13.1-4.7 8.4-13 15.5-24.9 16.1-11.9 0.1-20.1-6.6-24.4-14.2-2.7-4.5-4.3-9.6-4.3-15-0.1-2.3-2-4.5-4.6-4.5-2.4 0-4.5 1.8-4.5 4.7 0.1 4.7 1.1 9.8 3.2 14.6 4.6 10 14.1 21.2 29.1 23.3 1.7 0.3 3.5 0.4 5.4 0.4 14.6-0.1 25.6-7.7 31.8-17.6 3.5-5.8 5.9-12.8 5.9-20.7 0-2.8-1.9-4.7-4.6-4.7z"/>
  <path class="cls-1" d="m42.5 37.9c-3 0-6.1 2.5-6.1 5.9 0 3.1 2.6 6.1 6 6.1h6.2v-6c0-3.2-2.8-6-6.1-6z"/>
  <path class="cls-1" d="m57.4 37.9c-3.2 0-6.3 2.6-6.3 6v6h6.3c3.5 0 6-2.6 6-5.7 0.1-3.7-2.8-6.3-6-6.3z"/>
  <path class="cls-1" d="m57.4 52.4h-6.3v5.7c0 3.2 2.5 6 6.3 6 3.5 0 6-2.6 6-5.7 0.1-3.1-2.8-5.9-6-6z"/>
  <path class="cls-1" d="m36.4 58.3c0 2.7 2.1 5.8 6.2 5.8 3 0 6-2.3 6-5.8v-5.9h-6.2c-3.3 0-6 2.7-6 5.9z"/>
</svg>